<mxfile host="app.diagrams.net" modified="2021-06-02T07:12:50.565Z" agent="5.0 (Windows NT 10.0; Win64; x64) AppleWebKit/537.36 (KHTML, like Gecko) Chrome/90.0.4430.212 Safari/537.36" etag="sMhsUEvYLdJrAgBpU5Oe" version="14.5.0" type="github">
  <diagram id="h9-uJi77AIw2nsO9pm9e" name="Page-1">
    <mxGraphModel dx="1038" dy="548" grid="1" gridSize="10" guides="1" tooltips="1" connect="1" arrows="1" fold="1" page="1" pageScale="1" pageWidth="827" pageHeight="1169" math="0" shadow="0">
      <root>
        <mxCell id="0" />
        <mxCell id="1" parent="0" />
        <mxCell id="CvIbQZh5sJnHELBNwezM-1" value="Website" style="rounded=0;whiteSpace=wrap;html=1;" vertex="1" parent="1">
          <mxGeometry width="240" height="60" as="geometry" />
        </mxCell>
        <mxCell id="CvIbQZh5sJnHELBNwezM-21" style="edgeStyle=orthogonalEdgeStyle;rounded=0;orthogonalLoop=1;jettySize=auto;html=1;exitX=0.5;exitY=1;exitDx=0;exitDy=0;" edge="1" parent="1" source="CvIbQZh5sJnHELBNwezM-2" target="CvIbQZh5sJnHELBNwezM-12">
          <mxGeometry relative="1" as="geometry" />
        </mxCell>
        <mxCell id="CvIbQZh5sJnHELBNwezM-2" value="Home" style="rounded=0;whiteSpace=wrap;html=1;" vertex="1" parent="1">
          <mxGeometry x="60" y="180" width="120" height="60" as="geometry" />
        </mxCell>
        <mxCell id="CvIbQZh5sJnHELBNwezM-3" value="Nummers" style="rounded=0;whiteSpace=wrap;html=1;" vertex="1" parent="1">
          <mxGeometry x="294" y="180" width="120" height="60" as="geometry" />
        </mxCell>
        <mxCell id="CvIbQZh5sJnHELBNwezM-4" value="Artiesten" style="rounded=0;whiteSpace=wrap;html=1;glass=0;" vertex="1" parent="1">
          <mxGeometry x="480" y="180" width="120" height="60" as="geometry" />
        </mxCell>
        <mxCell id="CvIbQZh5sJnHELBNwezM-8" style="edgeStyle=orthogonalEdgeStyle;rounded=0;orthogonalLoop=1;jettySize=auto;html=1;exitX=0;exitY=0.5;exitDx=0;exitDy=0;entryX=0.5;entryY=1;entryDx=0;entryDy=0;" edge="1" parent="1" source="CvIbQZh5sJnHELBNwezM-6" target="CvIbQZh5sJnHELBNwezM-3">
          <mxGeometry relative="1" as="geometry" />
        </mxCell>
        <mxCell id="CvIbQZh5sJnHELBNwezM-18" style="edgeStyle=orthogonalEdgeStyle;rounded=0;orthogonalLoop=1;jettySize=auto;html=1;exitX=0.5;exitY=1;exitDx=0;exitDy=0;entryX=0.5;entryY=1;entryDx=0;entryDy=0;" edge="1" parent="1" source="CvIbQZh5sJnHELBNwezM-6" target="CvIbQZh5sJnHELBNwezM-12">
          <mxGeometry relative="1" as="geometry" />
        </mxCell>
        <mxCell id="CvIbQZh5sJnHELBNwezM-6" value="Admin" style="rounded=0;whiteSpace=wrap;html=1;" vertex="1" parent="1">
          <mxGeometry x="660" y="320" width="120" height="60" as="geometry" />
        </mxCell>
        <mxCell id="CvIbQZh5sJnHELBNwezM-9" value="" style="endArrow=none;html=1;entryX=1;entryY=0;entryDx=0;entryDy=0;" edge="1" parent="1" target="CvIbQZh5sJnHELBNwezM-4">
          <mxGeometry width="50" height="50" relative="1" as="geometry">
            <mxPoint x="480" y="240" as="sourcePoint" />
            <mxPoint x="530" y="190" as="targetPoint" />
          </mxGeometry>
        </mxCell>
        <mxCell id="CvIbQZh5sJnHELBNwezM-10" value="" style="endArrow=none;html=1;entryX=1;entryY=1;entryDx=0;entryDy=0;exitX=0;exitY=0;exitDx=0;exitDy=0;" edge="1" parent="1" source="CvIbQZh5sJnHELBNwezM-4" target="CvIbQZh5sJnHELBNwezM-4">
          <mxGeometry width="50" height="50" relative="1" as="geometry">
            <mxPoint x="500" y="160" as="sourcePoint" />
            <mxPoint x="620" y="100" as="targetPoint" />
          </mxGeometry>
        </mxCell>
        <mxCell id="CvIbQZh5sJnHELBNwezM-15" style="edgeStyle=orthogonalEdgeStyle;rounded=0;orthogonalLoop=1;jettySize=auto;html=1;exitX=1;exitY=0.5;exitDx=0;exitDy=0;entryX=0;entryY=0.5;entryDx=0;entryDy=0;" edge="1" parent="1" source="CvIbQZh5sJnHELBNwezM-12" target="CvIbQZh5sJnHELBNwezM-3">
          <mxGeometry relative="1" as="geometry" />
        </mxCell>
        <mxCell id="CvIbQZh5sJnHELBNwezM-12" value="User" style="rounded=0;whiteSpace=wrap;html=1;glass=0;" vertex="1" parent="1">
          <mxGeometry x="60" y="320" width="120" height="60" as="geometry" />
        </mxCell>
        <mxCell id="CvIbQZh5sJnHELBNwezM-19" value="Edit" style="text;html=1;align=center;verticalAlign=middle;resizable=0;points=[];autosize=1;" vertex="1" parent="1">
          <mxGeometry x="374" y="380" width="40" height="20" as="geometry" />
        </mxCell>
        <mxCell id="CvIbQZh5sJnHELBNwezM-20" value="Edit" style="text;html=1;align=center;verticalAlign=middle;resizable=0;points=[];autosize=1;" vertex="1" parent="1">
          <mxGeometry x="480" y="330" width="40" height="20" as="geometry" />
        </mxCell>
        <mxCell id="CvIbQZh5sJnHELBNwezM-22" value="Login" style="text;html=1;align=center;verticalAlign=middle;resizable=0;points=[];autosize=1;" vertex="1" parent="1">
          <mxGeometry x="120" y="270" width="50" height="20" as="geometry" />
        </mxCell>
        <mxCell id="CvIbQZh5sJnHELBNwezM-23" value="See" style="text;html=1;align=center;verticalAlign=middle;resizable=0;points=[];autosize=1;" vertex="1" parent="1">
          <mxGeometry x="240" y="270" width="40" height="20" as="geometry" />
        </mxCell>
      </root>
    </mxGraphModel>
  </diagram>
</mxfile>
